<?xml version="1.0" encoding="UTF-8" standalone="no"?>
<!-- Created with Inkscape (http://www.inkscape.org/) -->

<svg
   xmlns:dc="http://purl.org/dc/elements/1.1/"
   xmlns:cc="http://creativecommons.org/ns#"
   xmlns:rdf="http://www.w3.org/1999/02/22-rdf-syntax-ns#"
   xmlns:svg="http://www.w3.org/2000/svg"
   xmlns="http://www.w3.org/2000/svg"
   xmlns:sodipodi="http://sodipodi.sourceforge.net/DTD/sodipodi-0.dtd"
   xmlns:inkscape="http://www.inkscape.org/namespaces/inkscape"
   width="700"
   height="700"
   id="svg3443"
   version="1.1"
   inkscape:version="0.91 r13725"
   viewBox="0 0 1000 1000"
   sodipodi:docname="nasa.svg">
  <defs
     id="defs5498" />
  <sodipodi:namedview
     inkscape:window-height="690"
     inkscape:window-width="1366"
     inkscape:pageshadow="2"
     inkscape:pageopacity="0.0"
     borderopacity="1.0"
     bordercolor="#666666"
     pagecolor="#ffffff"
     id="base"
     showgrid="false"
     showguides="true"
     inkscape:guide-bbox="true"
     inkscape:zoom="0.454"
     inkscape:cx="740.08811"
     inkscape:cy="341.32693"
     inkscape:window-x="0"
     inkscape:window-y="32"
     inkscape:current-layer="layer1"
     inkscape:window-maximized="1">
    <sodipodi:guide
       orientation="horizontal"
       position="200"
       id="guide5596" />
  </sodipodi:namedview>
  <metadata
     id="metadata5594">
    <rdf:RDF>
      <cc:Work
         rdf:about="">
        <dc:format>image/svg+xml</dc:format>
        <dc:type
           rdf:resource="http://purl.org/dc/dcmitype/StillImage" />
        <dc:title />
      </cc:Work>
    </rdf:RDF>
  </metadata>
  <g
     inkscape:label="Layer 1"
     inkscape:groupmode="layer"
     id="layer1">
    <g
       style="font-style:normal;font-weight:normal;font-size:193.69842529px;line-height:125%;font-family:Sans;letter-spacing:0px;word-spacing:0px;fill:#ffffff;fill-opacity:1;stroke:none;stroke-width:1px;stroke-linecap:butt;stroke-linejoin:miter;stroke-opacity:1"
       id="text3336">
      <path
         d="m 176.52363,868.02702 0,-0.96849 q 0,-1.93699 3.87397,-2.90548 3.87397,-1.93698 6.77944,-6.77944 l 0.9685,0 q 3.87396,-4.84246 7.74793,-7.74794 4.84246,-2.90548 8.71643,-5.81095 36.8027,-30.02326 72.63691,-59.07802 35.83421,-29.05477 72.63691,-57.14104 16.46437,-13.55889 33.89723,-25.18079 18.40135,-11.62191 36.8027,-24.21231 5.81095,-5.81095 12.59039,-11.6219 6.77945,-5.81095 13.55889,-7.74794 l 0,0.96849 q 0,0.9685 5.81096,8.71643 5.81095,6.77945 8.71643,10.65342 1.93698,1.93698 5.81095,7.74793 4.84246,5.81096 5.81095,7.74794 5.81095,5.81095 13.55889,14.52738 8.71643,7.74794 19.36984,7.74794 11.62191,0 11.62191,-12.5904 0,-6.77944 -7.74794,-14.52738 -6.77944,-7.74794 -16.46436,-14.52738 -9.68493,-7.74794 -19.36985,-14.52738 -8.71643,-6.77945 -12.59039,-11.62191 l 0,-0.96849 q 0,0 11.6219,-7.74794 12.5904,-8.71643 27.11778,-18.40135 15.49587,-10.65341 29.05476,-19.36984 13.55889,-9.68492 16.46437,-11.62191 2.90548,-0.96849 2.90548,-1.93698 0,-0.96849 2.90547,-0.96849 l 0,16.46436 20.33834,-15.49587 2.90547,0 1.93699,0 q 12.5904,1.93698 23.24381,5.81095 11.6219,2.90548 23.24381,2.90548 12.5904,0 27.11778,-3.87397 14.52738,-3.87397 27.11778,-10.65341 12.5904,-7.74794 20.33833,-18.40136 8.71643,-11.6219 8.71643,-26.14928 0,-4.84246 -1.93698,-8.71643 -0.96849,-3.87397 -0.96849,-8.71643 l 0,-0.96849 q 0.96849,1.93698 3.87397,7.74793 2.90547,5.81096 5.81095,12.5904 3.87397,6.77945 6.77944,12.5904 2.90548,5.81095 4.84246,8.71643 0.9685,3.87397 3.87397,10.65341 2.90548,5.81095 2.90548,6.77945 l 0,1.93698 -11.62191,10.65341 15.49588,0 q 0,0 1.93698,4.84246 1.93699,4.84247 3.87397,12.5904 1.93698,6.77945 3.87397,14.52738 1.93698,6.77945 3.87397,10.65342 3.87397,16.46436 5.81095,31.96024 1.93698,15.49587 1.93698,30.99175 0,33.89722 -15.49587,59.07802 -14.52738,24.2123 -53.26707,24.2123 -19.36984,0 -38.73968,-4.84246 -18.40135,-5.81095 -37.7712,-13.55889 l -2.90547,0 q 0,2.90547 3.87397,2.90547 19.36984,7.74794 39.70817,15.49588 21.30683,6.77944 43.58215,6.77944 39.70818,0 54.23556,-25.18079 14.52738,-26.14929 14.52738,-62.95199 0,-28.08627 -5.81095,-54.23556 -4.84246,-26.14929 -12.5904,-52.29857 l 0,-0.9685 31.96024,0 q -8.71643,-9.68492 -8.71643,-23.24381 l 0,-1.93698 0,-4.84246 0,-0.96849 q 0,-3.87397 2.90548,-6.77945 0,-3.87397 0.96849,-3.87397 l 57.14104,0 q 1.93698,0 3.87396,8.71643 2.90548,7.74794 2.90548,11.62191 0,6.77944 -4.84246,11.6219 -3.87397,3.87397 -8.71643,8.71643 l 0,0.96849 107.50263,0 q -10.65342,-4.84246 -13.55889,-15.49587 l -61.01501,-169.48612 -38.73968,0 q 0,0 14.52738,-11.62191 14.52738,-11.6219 31.96024,-26.14928 18.40135,-14.52739 33.89722,-27.11778 16.46437,-12.5904 19.36985,-14.52739 2.90547,-2.90547 7.74793,-6.77944 4.84246,-3.87397 8.71643,-8.71643 l 0.9685,0 8.71642,-8.71643 q 0,0.96849 0,1.93698 0.9685,0.9685 0.9685,2.90548 38.73968,92.00675 38.73968,190.79295 0,100.72318 -37.77119,191.76144 -37.77119,90.06977 -103.62866,158.83271 -64.88897,67.79445 -153.99025,107.50263 -88.13278,39.70817 -189.82445,39.70817 -69.73144,0 -136.55739,-20.33833 -65.85747,-20.33834 -123.967,-61.01501 -2.90547,-1.93698 -13.55889,-8.71642 -9.68492,-7.74794 -21.30682,-15.49588 -9.68492,-7.74794 -14.52738,-12.5904 -4.84246,-5.81095 -11.62191,-10.65341 z m 129.77795,-4.84246 q 1.93698,0 5.81095,0.96849 3.87397,0.96849 4.84246,1.93699 5.81095,1.93698 5.81095,6.77944 0,1.93699 1.93699,9.68492 0,-19.36984 17.43285,-19.36984 -12.59039,-4.84246 -13.55889,-4.84246 -2.90547,0 -3.87396,-14.52738 -1.93699,7.74793 -1.93699,10.65341 0,5.81095 -5.81095,6.77945 -0.96849,0 -4.84246,0.96849 -3.87397,0.96849 -5.81095,0.96849 z M 30.281319,619.12454 q 7.747937,-4.84246 15.495874,-7.74793 8.716429,-3.87397 17.432858,-5.81096 10.653414,-4.84246 20.338335,-8.71643 9.684921,-3.87396 22.275314,-7.74793 l 9.68493,0 q 6.77944,0 14.52738,0 7.74794,-0.96849 14.52738,-0.96849 l 9.68492,0 -9.68492,-11.62191 q 0.96849,-0.96849 6.77944,-2.90548 6.77945,-2.90547 13.55889,-4.84246 7.74794,-1.93698 13.55889,-3.87397 6.77945,-1.93698 8.71643,-1.93698 4.84246,0 4.84246,4.84246 1.93699,1.93699 5.81096,9.68492 4.84246,7.74794 5.81095,10.65342 l 2.90548,2.90547 74.57389,0 q 0,-7.74793 -7.74794,-12.5904 -7.74793,-5.81095 -7.74793,-13.55889 l 0,-23.24381 q 0,-0.96849 11.6219,-3.87396 11.62191,-2.90548 25.1808,-6.77945 14.52738,-3.87397 27.11778,-6.77944 12.59039,-2.90548 15.49587,-2.90548 l 2.90548,0 0,2.90548 -12.5904,42.61365 -1.93699,1.93698 q -2.90547,7.74794 -9.68492,11.62191 -5.81095,3.87397 -10.65341,8.71643 l 59.07802,0 q -2.90548,-3.87397 -5.81095,-6.77945 -1.93699,-2.90547 -1.93699,-7.74793 0,-0.9685 -0.96849,-0.9685 0,-0.96849 0,-2.90547 l 0,-4.84246 0,-3.87397 q 0,-5.81095 2.90548,-11.62191 l 0.96849,0 0.96849,0.96849 66.82596,89.10128 0,0.96849 q 0,0 -11.62191,8.71643 -11.6219,7.74794 -26.14929,17.43286 -13.55888,9.68492 -26.14928,19.36984 -12.5904,8.71643 -15.49588,9.68492 -24.2123,19.36985 -47.45611,37.7712 -23.24381,18.40135 -46.48762,38.73968 -10.65342,7.74794 -21.30683,16.46437 -10.65341,8.71643 -20.33833,19.36984 l -0.9685,0 -16.46436,17.43286 -2.90548,0 -28.08627,28.08627 -3.87397,4.84246 -22.27532,-22.27532 Q 103.88672,790.54765 73.863465,736.31209 44.808701,681.10804 30.281319,619.12454 Z M 722.75319,852.53115 q 0,5.81095 3.87397,5.81095 4.84246,0 4.84246,-5.81095 0,-2.90548 -4.84246,-2.90548 -3.87397,0 -3.87397,2.90548 z m -356.4051,-40.67667 -3.87397,0 0,6.77944 q 0,0.96849 3.87397,0.96849 2.90547,0 2.90547,-3.87396 0,-3.87397 -2.90547,-3.87397 z m -59.07802,-7.74794 q 0,4.84246 4.84246,4.84246 3.87397,0 3.87397,-4.84246 0,-3.87397 -4.84246,-3.87397 -3.87397,0 -3.87397,3.87397 z m 161.73818,0 q 0,4.84246 4.84246,4.84246 3.87397,0 3.87397,-4.84246 0,-3.87397 -3.87397,-3.87397 -4.84246,0 -4.84246,3.87397 z M 807.012,763.42987 q 1.93699,1.93698 4.84247,1.93698 l 6.77944,0 q 4.84246,1.93699 4.84246,7.74794 0.96849,4.84246 1.93698,9.68492 1.93699,-4.84246 0.9685,-9.68492 0,-4.84246 5.81095,-7.74794 1.93698,0 4.84246,-0.96849 3.87397,-0.96849 5.81095,-0.96849 -1.93698,0 -5.81095,-0.96849 -2.90548,-0.96849 -4.84246,-1.93699 -4.84246,-2.90547 -4.84246,-6.77944 0,0 -1.93699,-7.74794 0,17.43286 -18.40135,17.43286 z m -244.06001,5.81095 q 0,4.84246 5.81095,4.84246 2.90548,0 2.90548,-4.84246 0,-3.87397 -2.90548,-3.87397 -5.81095,0 -5.81095,3.87397 z m -208.22581,-2.90547 q 0,6.77944 4.84246,6.77944 4.84246,0 4.84246,-6.77944 0,-2.90548 -4.84246,-2.90548 -4.84246,0 -4.84246,2.90548 z m -145.27382,-0.9685 q 0,6.77945 4.84246,6.77945 4.84246,0 4.84246,-6.77945 0,-4.84246 -4.84246,-4.84246 -4.84246,0 -4.84246,4.84246 z m 638.23631,-0.96849 q 0,3.87397 2.90548,3.87397 5.81095,0 5.81095,-3.87397 0,-4.84246 -4.84246,-4.84246 -3.87397,0 -3.87397,4.84246 z M 191.05101,748.90249 q 0,5.81095 3.87397,5.81095 4.84246,0 4.84246,-5.81095 0,-2.90548 -4.84246,-2.90548 -3.87397,0 -3.87397,2.90548 z m 81.35334,-2.90548 q 0,3.87397 5.81095,3.87397 2.90548,0 2.90548,-3.87397 0,-4.84246 -2.90548,-4.84246 -5.81095,0 -5.81095,4.84246 z m 435.82146,-4.84246 -2.90548,0 0,6.77945 q 0,0.96849 0.96849,0.96849 l 1.93699,0 q 3.87397,0 3.87397,-3.87397 0,-3.87397 -3.87397,-3.87397 z m 103.62866,0 q 0,3.87397 3.87396,3.87397 3.87397,0 3.87397,-3.87397 0,-4.84246 -3.87397,-4.84246 -3.87396,0 -3.87396,4.84246 z M 144.56339,726.62717 q 0,4.84246 3.87397,4.84246 3.87397,0 3.87397,-4.84246 0,-3.87397 -3.87397,-3.87397 -3.87397,0 -3.87397,3.87397 z m 51.33008,-4.84246 q 0,4.84246 5.81096,4.84246 4.84246,0 4.84246,-4.84246 0,-3.87397 -3.87397,-3.87397 -6.77945,0 -6.77945,3.87397 z m 127.84096,-24.2123 q 0,5.81095 3.87397,5.81095 5.81095,0 5.81095,-5.81095 0,-4.84246 -5.81095,-4.84246 -3.87397,0 -3.87397,4.84246 z m 417.42011,-1.93699 q 0,6.77945 4.84246,6.77945 4.84246,0 4.84246,-6.77945 0,-3.87397 -4.84246,-3.87397 -4.84246,0 -4.84246,3.87397 z m 114.28207,2.90548 q 0,3.87397 2.90548,3.87397 4.84246,0 4.84246,-3.87397 0,-3.87397 -4.84246,-3.87397 -2.90548,0 -2.90548,3.87397 z m 23.24381,-10.65342 q 0,6.77945 4.84246,6.77945 5.81096,0 5.81096,-6.77945 0,-0.96849 -1.93699,-2.90547 -0.96849,-1.93699 -3.87397,-1.93699 -4.84246,0 -4.84246,4.84246 z m -175.29707,0.9685 q 0,4.84246 5.81095,4.84246 2.90548,0 2.90548,-5.81096 0,-2.90547 -3.87397,-2.90547 -0.96849,0 -2.90548,0.96849 -1.93698,0.96849 -1.93698,2.90548 z m 146.24231,-33.89723 q 11.6219,0 13.55889,4.84246 2.90547,4.84246 3.87397,13.55889 4.84246,-3.87397 2.90547,-8.71643 -1.93698,-4.84246 3.87397,-7.74793 7.74794,-1.93699 10.65341,-1.93699 l -0.96849,-0.96849 q -0.96849,0 -4.84246,0 -3.87397,-0.96849 -4.84246,-1.93698 -4.84246,-1.93699 -4.84246,-6.77945 0,-1.93698 -1.93698,-9.68492 0,19.36984 -17.43286,19.36984 z m -108.47112,5.81096 q 0,6.77944 4.84246,6.77944 4.84246,0 4.84246,-5.81095 0,-4.84246 -4.84246,-4.84246 -4.84246,0 -4.84246,3.87397 z m 69.73143,-1.93699 q 0,5.81095 4.84246,5.81095 4.84246,0 4.84246,-5.81095 0,-4.84246 -3.87396,-4.84246 -5.81096,0 -5.81096,4.84246 z m -7.74793,-24.2123 q 0,4.84246 3.87396,4.84246 4.84247,0 4.84247,-4.84246 0,-3.87397 -4.84247,-3.87397 -3.87396,0 -3.87396,3.87397 z m -422.26257,-87.16429 44.55064,0 q 1.93698,0 2.90547,9.68492 1.93699,8.71643 1.93699,11.6219 0,6.77945 -3.87397,11.62191 -3.87397,3.87397 -7.74794,8.71643 l 0,1.93698 87.16429,0 q -1.93698,2.90548 -11.6219,9.68492 -8.71643,6.77945 -19.36984,14.52739 -10.65342,6.77944 -19.36985,12.59039 -8.71643,4.84246 -8.71643,4.84246 l -65.85746,-85.2273 z m -57.14104,55.20405 q 0,5.81095 2.90548,5.81095 4.84246,0 4.84246,-5.81095 0,-2.90548 -4.84246,-2.90548 -2.90548,0 -2.90548,2.90548 z M 16.722429,498.06303 q 0,-99.75469 36.802701,-188.85597 Q 91.296323,219.1373 156.1853,151.34285 222.04276,83.548398 309.20705,43.840221 397.33983,3.1635513 499.03151,3.1635513 q 117.18755,0 215.97374,51.3300827 99.75469,51.330086 169.48612,145.273816 0.9685,1.93699 8.71643,13.55889 7.74794,11.62191 12.5904,17.43286 -0.96849,0 0.96849,3.87397 1.93699,2.90548 2.90548,4.84246 -3.87397,1.93698 -7.74794,4.84246 -2.90547,2.90548 -7.74793,4.84246 -10.65342,6.77945 -22.27532,12.5904 -10.65342,5.81095 -22.27532,11.6219 0,0.9685 -0.96849,0.9685 l 0,0.96849 -75.54239,36.8027 -0.96849,0 -19.36984,9.68492 -0.9685,0 -13.55889,7.74794 -1.93698,0 q -21.30683,8.71643 -41.64516,18.40135 -20.33834,8.71643 -42.61366,16.46436 -5.81095,3.87397 -14.52738,7.74794 -7.74793,3.87397 -14.52738,4.84246 0,0.96849 -1.93698,-0.96849 -0.9685,-2.90548 -1.93699,-2.90548 -2.90547,-2.90547 -8.71643,-9.68492 -5.81095,-6.77944 -12.59039,-14.52738 -6.77945,-7.74794 -12.5904,-14.52738 -5.81096,-6.77945 -8.71643,-9.68492 -2.90548,-2.90548 -9.68492,-9.68492 -6.77945,-6.77945 -14.52738,-14.52739 -6.77945,-7.74793 -13.55889,-14.52738 -6.77945,-6.77944 -9.68493,-9.68492 -1.93698,-0.96849 -6.77944,-4.84246 -4.84246,-3.87397 -11.62191,-8.71643 -5.81095,-4.84246 -11.6219,-9.68492 -5.81095,-5.81095 -8.71643,-8.71643 -14.52738,-11.6219 -33.89723,-24.2123 -18.40135,-12.5904 -39.70817,-23.24381 -21.30683,-11.62191 -42.61366,-18.40135 -21.30682,-6.77945 -41.64516,-6.77945 -34.86571,0 -53.26706,23.24381 -17.43286,22.27532 -21.30683,54.23556 0,1.93699 -0.96849,6.77945 0,4.84246 0,9.68492 l 0,3.87397 q 0,58.10952 20.33833,110.4081 21.30683,51.33008 47.45612,100.72318 l 0,0.96849 q 0,0 -9.68493,3.87397 -8.71642,2.90548 -19.36984,6.77945 -10.65341,3.87396 -20.33833,7.74793 -9.68492,2.90548 -9.68492,2.90548 l 0,-79.41636 q 0,-4.84246 4.84246,-8.71642 5.81095,-4.84247 8.71643,-9.68493 l -3.87397,-0.96849 -50.36159,0 0,0.96849 q 1.93698,1.93699 4.84246,7.74794 3.87397,4.84246 5.81095,6.77945 2.90548,2.90547 2.90548,6.77944 l 0,89.10128 -0.9685,-0.9685 0,-0.96849 q 0,-0.96849 -1.93698,-2.90547 l -59.07802,-105.56565 -1.93698,-0.96849 -12.5904,0 q -9.68492,0 -25.1808,0 -15.49587,-0.96849 -24.2123,-0.96849 l -7.74794,0 -6.779442,0 -0.968492,0.96849 q 2.905474,5.81095 6.779444,10.65342 3.87397,3.87396 6.77945,9.68492 0,7.74793 0,27.11778 0.96849,18.40135 0.96849,40.67667 0,21.30682 0,41.64516 0.96849,19.36984 0.96849,27.11778 l 0,0.96849 0,2.90547 q -0.96849,0 -3.87397,0.9685 -1.93698,0 -2.90548,0.96849 L 63.210051,588.1328 q -0.968492,0 -9.684921,4.84246 -7.747937,4.84246 -12.590398,6.77944 -3.873968,1.93699 -4.84246,2.90548 -1.936984,0.96849 -4.842461,2.90547 -2.905476,0.9685 -2.905476,1.93699 -0.968492,-0.96849 -0.968492,-4.84246 0,-2.90548 -0.968492,-3.87397 -4.842461,-24.2123 -7.747937,-49.3931 -1.936985,-25.18079 -1.936985,-51.33008 z M 479.66167,486.44112 q 0,-0.96849 9.68492,-2.90547 9.68492,-2.90548 21.30682,-5.81096 12.5904,-3.87397 23.24381,-6.77944 11.62191,-2.90548 13.55889,-3.87397 3.87397,14.52738 10.65342,28.08627 6.77944,13.55889 23.24381,20.33834 l 20.33833,8.71643 q 0.9685,0 2.90548,2.90547 0,0 -5.81095,4.84246 -5.81096,3.87397 -13.55889,8.71643 -6.77945,4.84246 -13.55889,8.71643 -5.81096,3.87397 -6.77945,3.87397 l -0.96849,0 -11.6219,-9.68492 -0.9685,0 0,19.36984 q -6.77944,1.93698 -17.43286,11.62191 -10.65341,8.71643 -15.49587,8.71643 -2.90548,0 -4.84246,-3.87397 -0.96849,-3.87397 -2.90548,-5.81096 l -30.99174,-87.16429 z m 219.84771,4.84246 0,-0.96849 q 15.49587,-10.65341 30.02325,-21.30683 15.49588,-11.6219 30.99175,-21.30682 7.74794,-7.74794 17.43286,-12.5904 l -36.8027,134.62041 -1.93698,2.90547 -39.70818,-81.35334 z m -113.31358,73.6054 q 1.93698,-1.93698 9.68492,-6.77944 7.74794,-5.81095 8.71643,-4.84246 5.81095,-4.84246 10.65341,-7.74794 5.81096,-2.90547 10.65342,-6.77944 l 0.96849,-0.96849 1.93698,0 0.9685,0 q 5.81095,0 10.65341,4.84246 4.84246,4.84246 4.84246,9.68492 0,10.65341 -12.5904,13.55889 -12.5904,2.90547 -20.33833,2.90547 -6.77945,0 -14.52738,0 -6.77945,-0.96849 -11.62191,-3.87397 z m -449.38035,-93.94373 36.8027,63.92048 0,0.96849 q 0,0.96849 -5.81095,3.87397 -4.84246,1.93698 -11.6219,4.84246 -6.77945,2.90548 -12.5904,5.81095 -5.81095,1.93699 -6.77945,1.93699 l 0,-81.35334 z m 661.48013,-11.62191 25.18079,64.88898 -44.55064,0 19.36985,-64.88898 z m -388.36535,44.55064 1.93699,1.93698 q 0,1.93699 1.93698,7.74794 2.90548,4.84246 2.90548,6.77945 l 0.96849,0.96849 -44.55064,0 q 0,-0.96849 0.96849,-3.87397 0.9685,-3.87397 2.90548,-4.84246 0.96849,0 9.68492,-1.93698 8.71643,-2.90548 15.49588,-4.84247 6.77944,-1.93698 7.74793,-1.93698 z m 292.48462,13.55889 0.9685,0 q 0,0.96849 -0.9685,1.93698 -0.96849,0 -0.96849,-1.93698 l 0.96849,0 z m -15.49587,-19.36984 0,-0.96849 q 0.96849,0 1.93699,0 1.93698,-0.9685 1.93698,-0.9685 l 0.96849,0.9685 9.68492,17.43285 0,0.9685 q -3.87397,-1.93699 -7.74793,-7.74794 -2.90548,-5.81095 -6.77945,-9.68492 z m -82.32183,-47.45612 q 0,-0.96849 6.77944,-2.90547 6.77945,-2.90548 14.52739,-5.81096 8.71643,-2.90547 15.49587,-4.84246 6.77945,-2.90547 7.74794,-2.90547 6.77944,0 6.77944,6.77944 0.96849,1.93699 3.87397,7.74794 3.87397,4.84246 7.74794,10.65341 3.87397,5.81096 6.77944,11.62191 3.87397,4.84246 5.81096,6.77944 0,1.93699 -3.87397,4.84246 -3.87397,1.93699 -5.81096,1.93699 -4.84246,-1.93699 -13.55889,-5.81095 -7.74793,-4.84247 -14.52738,-7.74794 l -16.46436,-4.84246 q -2.90548,-1.93699 -12.5904,-5.81095 -8.71643,-4.84247 -8.71643,-9.68493 z m -272.14629,19.36985 q -14.52738,-28.08628 -27.11778,-55.20405 -11.6219,-28.08628 -21.30682,-59.07802 -15.49588,-42.61366 -15.49588,-87.1643 0,-33.89722 14.52738,-59.07802 15.49588,-25.18079 52.29858,-25.18079 34.86572,0 67.79445,16.46437 32.92873,15.49587 60.04651,34.86571 3.87397,2.90548 10.65341,8.71643 7.74794,5.81095 14.52738,12.5904 7.74794,5.81095 13.55889,11.6219 6.77945,4.84246 8.71643,6.77945 l 69.73144,68.76294 29.05476,34.86572 q 0.96849,0 0.96849,0.96849 0.96849,0.96849 0.96849,0.96849 0,1.93698 -17.43285,8.71643 -17.43286,6.77944 -39.70818,14.52738 -21.30683,7.74794 -41.64516,14.52738 -19.36984,6.77945 -23.24381,7.74794 -5.81096,0.96849 -13.55889,4.84246 -7.74794,3.87397 -12.5904,3.87397 -1.93698,0 -2.90548,-0.96849 0,-0.96849 0,-0.96849 l -9.68492,-25.1808 q 0,-0.96849 -0.96849,-1.93698 0,-0.9685 0,-0.9685 l -90.06977,0 0,1.93699 q 2.90548,3.87397 7.74794,9.68492 4.84246,4.84246 5.81095,9.68492 0,2.90548 -1.93698,8.71643 -0.96849,4.84246 -2.90548,11.62191 -0.96849,5.81095 -2.90548,11.6219 -0.96849,5.81095 -0.96849,7.74794 0.96849,0 -1.93698,2.90547 -4.84246,1.93699 -10.65341,4.84246 -4.84247,1.93699 -10.65342,3.87397 l -2.90547,0 q -0.9685,0 -2.90548,-1.93698 -0.96849,-0.96849 -1.93699,-2.90548 0,-1.93698 -0.96849,-2.90547 z m 354.46812,0.96849 q -0.96849,-0.96849 -3.87397,-4.84246 -1.93698,-3.87397 -5.81095,-8.71643 -2.90548,-4.84246 -5.81095,-8.71643 -1.93699,-3.87397 -2.90548,-5.81095 0,-0.9685 -0.96849,-1.93699 0,-0.96849 0,-0.96849 l 0.96849,0 q 1.93698,0 4.84246,2.90548 1.93699,0 6.77945,3.87397 4.84246,2.90547 5.81095,3.87396 l 1.93698,0 0,-30.99174 q 0,0 7.74794,-2.90548 7.74794,-3.87397 16.46437,-7.74794 8.71643,-3.87397 16.46436,-6.77944 8.71643,-3.87397 10.65342,-3.87397 l 9.68492,-4.84246 0.96849,0 11.6219,-4.84246 0.9685,0 49.3931,-25.1808 0.96849,-0.96849 q 16.46436,-9.68492 30.02325,-18.40135 14.52739,-8.71643 30.99175,-17.43286 1.93699,-1.93698 4.84246,-2.90547 3.87397,-1.93699 4.84246,-3.87397 0,0 -2.90547,4.84246 -1.93699,4.84246 -3.87397,2.90547 l -6.77945,6.77945 -1.93698,0 q -7.74794,9.68492 -18.40135,16.46436 -9.68492,6.77945 -17.43286,13.55889 -13.55889,11.62191 -26.14929,22.27532 -11.6219,9.68492 -25.18079,20.33834 l -0.9685,0 q -1.93698,0 -7.74793,0.96849 -5.81095,0 -7.74794,0 l 0,0.96849 4.84246,4.84246 0,0.9685 q -0.96849,0.96849 -13.55889,10.65341 -11.6219,8.71643 -26.14929,19.36984 -14.52738,10.65341 -27.11778,19.36984 -11.6219,8.71643 -12.59039,8.71643 l -0.96849,0 q -1.93699,0 -1.93699,-1.93698 z M 393.46587,457.38636 q 0.96849,0.96849 0.96849,1.93698 l -0.96849,0 0,-1.93698 z m 272.14628,-20.33834 q 0.9685,0 0.9685,0.9685 0,1.93698 -0.9685,1.93698 0,0 -0.96849,0 0,-0.96849 0,-1.93698 l 0,-0.9685 0.96849,0 z m -53.26706,-56.17254 0,0.96849 0,0.96849 -0.9685,-0.96849 0,-0.96849 0.9685,0 z m 276.98875,-63.92048 0.96849,0.96849 q 0,0 -0.96849,0.96849 -0.9685,0 -1.93699,0.9685 l -0.96849,0 q -1.93699,-2.90548 2.90548,-2.90548 z m 1.93698,-3.87397 0,1.93699 0,0.96849 q -0.96849,0 -0.96849,-0.96849 0,-1.93699 0.96849,-1.93699 z m 1.93698,-0.96849 q 0.9685,0 0.9685,0.96849 0,1.93699 -0.9685,1.93699 -0.96849,0 -0.96849,-1.93699 0,-0.96849 0.96849,-0.96849 z M 355.69467,247.22357 q 3.87397,3.87397 7.74794,2.90547 4.84246,-0.96849 7.74794,4.84246 0.96849,0.9685 0.96849,5.81096 0.96849,3.87397 0.96849,5.81095 1.93699,-7.74794 1.93699,-9.68492 0,-4.84246 4.84246,-6.77945 1.93698,-0.96849 4.84246,-1.93698 3.87397,-0.96849 5.81095,-0.96849 -17.43286,0 -17.43286,-16.46437 0,16.46437 -17.43286,16.46437 z m -19.36984,13.55889 q 0,4.84246 4.84246,4.84246 3.87397,0 3.87397,-4.84246 0,-3.87397 -4.84246,-3.87397 -3.87397,0 -3.87397,3.87397 z m -16.46437,-21.30683 q 0,4.84246 4.84247,4.84246 1.93698,0 1.93698,-4.84246 0,-3.87397 -1.93698,-3.87397 -4.84247,0 -4.84247,3.87397 z m 274.08328,-30.99175 q 0,5.81095 5.81095,5.81095 4.84246,0 4.84246,-5.81095 0,-3.87397 -4.84246,-3.87397 -5.81095,0 -5.81095,3.87397 z M 410.89872,173.61817 q 0,3.87396 3.87397,3.87396 4.84246,0 4.84246,-3.87396 0,-4.84247 -4.84246,-4.84247 -3.87397,0 -3.87397,4.84247 z m 114.28208,-7.74794 q 0,4.84246 3.87396,4.84246 4.84246,0 4.84246,-4.84246 0,-3.87397 -5.81095,-3.87397 -2.90547,0 -2.90547,3.87397 z m -96.84922,-6.77945 q 0,2.90548 4.84246,2.90548 3.87397,0 3.87397,-2.90548 0,-5.81095 -3.87397,-5.81095 -4.84246,0 -4.84246,5.81095 z m -11.6219,-9.68492 q 0,4.84246 3.87397,4.84246 4.84246,0 4.84246,-4.84246 0,-3.87397 -4.84246,-3.87397 -3.87397,0 -3.87397,3.87397 z m 64.88897,-5.81095 q 0,2.90548 4.84246,2.90548 3.87397,0 3.87397,-2.90548 0,-5.81095 -3.87397,-5.81095 -4.84246,0 -4.84246,5.81095 z m -76.51088,-1.93698 q 0,3.87396 4.84246,3.87396 2.90548,0 2.90548,-3.87396 0,-3.87397 -2.90548,-3.87397 -4.84246,0 -4.84246,3.87397 z m 192.72994,-27.11778 1.93698,0.96849 q 0,-10.65342 2.90548,-13.55889 2.90547,-3.87397 13.55889,-4.842462 -1.93699,-1.936985 -3.87397,-1.936985 l -4.84246,0 q -3.87397,0 -7.74794,-5.810952 0,-1.936985 -0.96849,-5.810953 0,-3.873969 0.96849,-5.810953 l -1.93698,0 q 0.96849,2.905476 -0.9685,11.621906 -1.93698,5.810952 -6.77944,5.810952 -1.93699,0 -9.68492,1.936985 8.71643,0 13.55889,4.842462 5.81095,3.87397 3.87397,12.5904 z m -74.5739,-6.77945 q 0,5.81095 4.84246,5.81095 5.81095,0 5.81095,-5.81095 0,-4.84246 -5.81095,-4.84246 -4.84246,0 -4.84246,4.84246 z m -55.20405,-6.77944 q 0,5.81095 4.84246,5.81095 4.84246,0 4.84246,-5.81095 0,-4.842465 -4.84246,-4.842465 -4.84246,0 -4.84246,4.842465 z m 30.02326,-54.235563 q 0,3.873969 3.87396,3.873969 3.87397,0 3.87397,-3.873969 0,-3.873968 -3.87397,-3.873968 -3.87396,0 -3.87396,3.873968 z"
         style="font-style:normal;font-variant:normal;font-weight:normal;font-stretch:normal;font-size:968.49212646px;font-family:'NASA Dings';-inkscape-font-specification:'NASA Dings';fill:#ffffff;fill-opacity:1"
         id="path7277"
         inkscape:connector-curvature="0" />
    </g>
  </g>
</svg>
